<svg xmlns="http://www.w3.org/2000/svg" viewBox="0 0 640 400"><rect width="640" height="400" fill="#090e16"/><text x="24" y="32" fill="white" font-family="sans-serif">GAE predicted camera trajectory · 81 views</text><polyline points="550.40,200.15 543.28,199.37 538.72,199.43 533.36,198.81 527.74,198.24 522.44,198.03 518.06,197.62 512.93,197.17 509.13,196.52 502.64,196.01 496.99,195.21 491.34,194.83 485.85,194.12 481.05,193.88 476.65,193.46 473.14,192.97 468.24,192.95 463.99,193.07 459.25,192.78 453.92,192.09 448.22,191.87 443.82,191.96 438.53,192.19 434.24,192.06 430.46,192.22 425.52,192.56 421.51,192.35 416.54,192.48 413.55,193.03 408.54,193.89 403.46,194.35 401.06,194.86 395.36,195.14 392.16,195.61 388.71,196.09 383.31,196.76 379.33,197.53 375.37,197.87 371.97,197.91 366.81,198.81 362.66,199.64 361.18,200.20 357.08,200.80 351.97,201.31 347.51,201.85 343.01,202.50 337.68,203.52 332.48,204.08 327.21,204.44 323.10,205.24 318.73,205.83 313.80,206.21 307.97,207.47 303.29,207.60 299.36,207.44 296.04,207.31 290.77,207.20 286.47,207.45 280.95,208.13 275.00,207.55 270.48,206.96 265.39,206.79 256.89,205.75 245.02,205.12 238.71,204.88 228.98,205.61 218.60,205.91 206.72,205.75 198.47,204.61 189.51,203.51 175.20,203.28 165.29,202.82 157.70,202.19 145.68,201.00 135.33,201.62 132.00,201.64 122.73,203.23 114.20,202.74 103.71,201.81 95.49,201.08 89.60,200.98" fill="none" stroke="#f0abfc" stroke-width="3"/></svg>