<svg xmlns="http://www.w3.org/2000/svg" viewBox="0 0 640 400"><rect width="640" height="400" fill="#090e16"/><text x="24" y="32" fill="white" font-family="sans-serif">GAE predicted camera trajectory · 81 views</text><polyline points="550.40,180.13 535.94,180.54 522.70,181.53 508.22,181.73 494.75,180.03 483.08,178.44 470.26,175.65 458.23,175.49 446.19,173.05 432.25,170.56 415.74,168.53 402.75,165.62 387.82,161.46 379.02,157.59 371.28,153.74 364.76,150.37 356.55,147.84 346.46,144.89 341.36,141.90 335.55,137.64 331.67,136.20 325.37,134.70 321.52,132.59 317.72,129.74 317.86,128.63 311.89,127.75 308.02,129.15 305.51,129.41 303.99,131.50 302.18,132.09 298.53,130.56 291.72,130.74 281.82,135.05 279.94,138.36 281.75,141.13 277.99,143.81 276.36,147.25 273.50,154.35 269.35,161.78 280.21,170.01 279.57,177.31 284.68,183.37 283.50,189.14 288.44,195.99 287.91,202.26 287.67,207.93 286.79,212.19 286.75,217.01 285.71,224.09 283.04,228.05 277.65,233.22 270.86,238.83 265.97,242.64 261.96,246.72 255.06,252.09 246.99,255.15 244.67,257.13 243.30,260.73 233.31,264.92 222.54,267.69 213.89,268.59 212.96,270.69 208.87,272.24 203.17,272.25 189.47,271.62 184.08,270.68 174.51,268.84 162.33,268.72 156.55,266.49 152.30,265.20 145.12,262.80 136.63,260.21 134.66,255.60 129.09,251.60 124.71,247.81 119.82,243.77 110.81,238.58 112.39,233.27 105.65,226.82 104.17,222.88 89.60,220.44" fill="none" stroke="#f0abfc" stroke-width="3"/></svg>