<svg xmlns="http://www.w3.org/2000/svg" viewBox="0 0 640 400"><rect width="640" height="400" fill="#090e16"/><text x="24" y="32" fill="white" font-family="sans-serif">INPUT / GAE · 81 views</text><polyline points="545.97,157.48 541.32,159.97 536.18,162.76 531.56,165.14 526.62,167.62 522.55,169.74 518.47,172.07 515.23,174.05 511.79,176.29 508.84,178.37 504.91,180.80 500.75,182.78 495.20,184.60 489.81,185.96 483.70,187.26 475.67,188.71 468.04,189.91 458.83,191.24 449.52,192.69 441.28,193.99 431.97,195.47 423.84,196.89 416.05,198.25 407.48,199.61 399.85,200.75 391.25,202.06 382.49,203.35 374.70,204.16 367.02,204.88 358.67,205.72 351.77,206.62 343.76,207.74 336.66,208.53 328.40,209.03 320.95,209.05 312.50,208.80 305.01,208.55 296.62,208.49 289.01,208.37 279.55,208.32 270.30,208.60 259.46,209.20 250.07,209.91 239.78,210.94 230.99,211.98 221.32,213.47 212.95,214.81 203.96,216.18 196.11,217.49 187.69,218.98 180.35,220.26 171.88,221.95 164.11,223.53 155.43,225.29 147.72,226.83 138.99,228.71 131.64,230.59 123.97,232.84 117.56,235.03 111.02,237.37 105.30,239.40 98.92,241.56 96.18,242.01 94.72,241.83 93.85,241.75 93.35,241.61 93.02,241.51 92.74,241.44 92.60,241.38 92.51,241.32 92.46,241.28 92.42,241.25 92.41,241.23 92.41,241.22 92.42,241.21 92.50,241.17 92.92,240.95 93.74,240.54 94.70,240.04 95.67,239.55 96.50,239.10" fill="none" stroke="#67e8f9" stroke-width="3"/><polyline points="550.40,156.27 543.37,159.66 537.54,162.77 532.75,165.49 528.44,167.79 524.77,169.79 520.37,172.03 516.33,174.36 513.38,176.67 510.63,178.91 505.42,182.12 501.54,184.26 496.02,186.42 490.87,187.52 486.29,188.13 478.73,189.14 468.43,190.19 459.53,192.17 452.14,193.26 443.50,193.91 433.91,195.59 424.09,196.31 415.83,198.41 407.78,198.73 400.46,199.58 394.47,200.90 383.74,201.99 375.63,203.83 370.81,204.07 361.57,205.30 355.08,206.09 344.48,207.48 336.44,208.42 329.73,208.64 319.27,209.35 310.48,208.47 301.98,208.08 290.15,209.48 280.60,209.72 270.30,210.17 263.08,209.91 250.76,210.83 241.51,210.97 231.84,211.89 225.40,212.83 214.71,213.96 207.44,214.96 195.47,216.18 183.63,217.69 180.66,218.56 169.33,218.91 162.04,219.60 154.42,221.83 138.13,224.18 129.33,224.46 121.34,225.97 118.20,226.87 113.11,228.79 110.89,231.48 108.66,233.07 112.14,235.38 111.71,238.68 105.36,240.11 108.40,241.64 106.18,242.83 102.24,242.64 106.59,241.89 105.05,242.81 103.04,243.73 102.06,243.45 98.71,243.67 100.94,243.41 104.78,243.03 104.75,243.63 103.72,242.31 102.52,242.23 99.54,242.89 101.77,240.87 93.21,240.96 90.95,240.09 89.60,240.73" fill="none" stroke="#f0abfc" stroke-width="3"/></svg>