<svg xmlns="http://www.w3.org/2000/svg" viewBox="0 0 640 400"><rect width="640" height="400" fill="#090e16"/><text x="24" y="32" fill="white" font-family="sans-serif">INPUT / GAE · 81 views</text><polyline points="421.03,56.00 422.38,60.75 421.89,65.39 419.41,70.60 413.90,74.67 406.24,77.87 397.47,80.88 387.88,83.97 378.93,86.94 369.30,90.06 360.58,93.13 352.85,96.18 345.54,99.62 338.47,103.41 331.91,107.35 325.37,111.44 318.60,115.76 313.05,119.67 308.23,123.84 304.33,128.07 300.77,132.38 297.02,137.13 292.70,142.22 288.43,146.62 282.76,151.19 276.15,155.63 267.34,160.29 256.01,165.16 244.45,169.85 232.27,176.69 222.41,184.69 217.62,192.64 218.06,198.34 221.54,202.93 227.43,206.93 235.05,210.71 243.81,214.39 252.44,217.81 261.26,221.38 269.11,224.24 276.13,227.07 282.55,229.69 287.22,230.63 290.70,231.39 292.79,231.68 295.09,232.20 297.98,233.01 301.97,234.15 306.59,235.59 311.04,237.47 314.48,239.49 316.71,241.71 318.36,244.36 319.55,247.15 320.55,250.04 321.67,253.18 322.84,256.42 324.97,259.52 328.25,262.63 331.97,265.98 335.58,269.03 339.14,272.37 342.08,275.69 345.31,279.21 348.33,282.85 349.39,286.27 348.95,290.31 348.31,294.56 349.28,299.20 351.55,303.57 354.23,307.99 356.31,312.12 357.26,315.78 357.60,318.79 357.77,322.18 357.97,325.68 358.13,329.30 358.23,333.54 358.15,337.43 357.95,340.95 357.83,343.98" fill="none" stroke="#67e8f9" stroke-width="3"/><polyline points="418.03,59.38 418.82,63.95 417.29,68.07 414.84,72.90 409.47,76.27 401.05,80.03 393.01,82.49 385.43,84.66 377.89,87.18 369.44,90.52 361.05,93.30 352.62,96.50 345.67,99.95 337.51,104.05 328.97,108.60 324.32,112.54 318.59,116.24 312.82,119.63 309.42,122.06 304.39,126.20 299.79,130.88 296.06,135.63 290.28,140.13 284.40,145.21 277.48,152.15 271.82,155.47 257.07,162.58 241.70,170.46 232.27,174.29 224.67,180.81 223.87,191.12 229.68,197.20 232.19,201.39 239.90,203.76 244.72,207.60 249.37,211.87 255.17,213.54 265.79,213.55 276.90,217.97 280.21,223.01 284.50,226.84 285.86,229.30 289.79,230.63 294.17,229.64 294.61,229.60 298.28,229.70 303.03,228.84 305.32,228.76 312.46,226.99 316.39,228.88 319.75,230.10 322.05,233.13 320.83,236.89 320.98,241.93 321.81,246.91 321.42,251.95 328.09,254.28 330.23,257.46 330.24,263.42 333.20,263.29 335.22,270.64 338.48,274.13 338.51,272.76 338.83,275.73 340.53,276.18 339.58,278.97 333.65,287.05 332.08,293.79 332.13,299.64 336.71,306.53 344.22,311.58 345.10,318.35 349.65,322.44 356.66,323.22 356.92,329.88 358.12,333.59 360.03,336.03 363.39,339.57 363.52,341.56 363.44,344.00 361.01,343.58" fill="none" stroke="#f0abfc" stroke-width="3"/></svg>